<svg width="22" height="22" viewBox="0 0 22 22" fill="none" xmlns="http://www.w3.org/2000/svg">
<g id="Icon" clip-path="url(#clip0_2145_18895)">
<path id="Vector" d="M10.7148 0C7.98991 0 5.75357 0.739091 4.20897 2.1495C2.66437 3.55992 1.87402 5.60108 1.87402 7.97497V10.0418C1.22367 10.5425 0.733276 11.2368 0.733276 12.1C0.733276 13.3989 1.70546 14.4485 2.96908 14.7296C3.48044 16.6849 4.33051 18.4267 5.52795 19.7054C6.84105 21.1076 8.55128 21.9999 10.4296 21.9999C10.5429 22.0015 10.6555 21.9813 10.7607 21.9405C10.8659 21.8997 10.9617 21.8392 11.0424 21.7625C11.1231 21.6857 11.1873 21.5942 11.231 21.4934C11.2748 21.3925 11.2973 21.2843 11.2973 21.1749C11.2973 21.0656 11.2748 20.9573 11.231 20.8565C11.1873 20.7556 11.1231 20.6642 11.0424 20.5874C10.9617 20.5106 10.8659 20.4501 10.7607 20.4093C10.6555 20.3686 10.5429 20.3484 10.4296 20.3499C9.10752 20.3499 7.86412 19.7375 6.79792 18.599C5.73172 17.4604 4.88148 15.8007 4.45739 13.852C4.41697 13.6666 4.31164 13.5004 4.1591 13.381C4.00655 13.2617 3.81608 13.1966 3.61966 13.1967C3.44472 13.1967 3.43414 13.2 3.58513 13.2C2.94498 13.2 2.44439 12.7172 2.44439 12.1C2.44439 11.658 2.70761 11.2979 3.09608 11.1203C3.2424 11.0534 3.36603 10.9478 3.4526 10.8158C3.53917 10.6839 3.58513 10.5309 3.58513 10.3748V7.97497C3.58513 5.94448 4.2207 4.41073 5.38536 3.34725C6.55002 2.28378 8.30627 1.64999 10.7148 1.64999C14.318 1.64999 16.6879 3.24292 17.8422 5.5698C17.8533 5.59277 17.8514 5.60033 17.8087 5.61277C17.1778 5.79679 15.6517 6.04998 13.8518 6.04998C11.6773 6.04998 10.2309 5.65925 9.34119 5.29158C8.45151 4.92391 8.18263 4.64168 8.18263 4.64168C8.08107 4.54375 7.95557 4.47204 7.81771 4.43317C7.67986 4.3943 7.53407 4.38952 7.39379 4.41927C7.25351 4.44902 7.12326 4.51234 7.01503 4.6034C6.90681 4.69446 6.8241 4.81032 6.77452 4.94031C6.77452 4.94031 6.58386 5.51202 5.62933 6.22078C5.54023 6.28694 5.46553 6.36937 5.40947 6.46337C5.35342 6.55737 5.31711 6.6611 5.30263 6.76863C5.28815 6.87616 5.29577 6.98539 5.32507 7.09008C5.35436 7.19477 5.40475 7.29287 5.47337 7.37878C5.54198 7.46469 5.62747 7.53673 5.72495 7.59078C5.82243 7.64483 5.93 7.67984 6.04151 7.69381C6.15303 7.70777 6.2663 7.70042 6.37487 7.67217C6.48344 7.64392 6.58517 7.59533 6.67426 7.52917C7.23416 7.11343 7.5771 6.68929 7.84731 6.32498C8.13186 6.51499 8.13106 6.58726 8.6661 6.80837C9.77272 7.2657 11.4634 7.69997 13.8518 7.69997C15.0757 7.69997 16.1288 7.59976 16.9877 7.46364C17.1217 7.85129 17.274 8.41803 17.274 9.07497V14.5749C17.274 15.9519 16.1353 17.0499 14.7074 17.0499H13.658C13.4961 16.721 13.2409 16.443 12.9219 16.2483C12.6028 16.0536 12.2331 15.9502 11.8555 15.9499C11.5933 15.9499 11.3338 15.9997 11.0915 16.0965C10.8493 16.1932 10.6293 16.335 10.4439 16.5138C10.2585 16.6925 10.1115 16.9047 10.0112 17.1383C9.91084 17.3718 9.8592 17.6221 9.8592 17.8749C9.8592 18.1277 9.91084 18.378 10.0112 18.6116C10.1115 18.8451 10.2585 19.0574 10.4439 19.2361C10.6293 19.4149 10.8493 19.5567 11.0915 19.6534C11.3338 19.7501 11.5933 19.7999 11.8555 19.7999C12.2329 19.7995 12.6024 19.6959 12.9212 19.5012C13.24 19.3066 13.4951 19.0287 13.6568 18.6999H14.7074C16.9636 18.6999 18.8219 16.9909 18.9706 14.8499H18.9851C20.2451 14.8499 21.2666 13.8649 21.2666 12.65V11.55C21.2666 10.335 20.2451 9.34996 18.9851 9.34996V9.07497C18.9851 8.2724 18.8182 7.56011 18.652 7.04792C19.4229 6.62706 19.7878 5.66885 19.3862 4.8576C17.9578 1.9782 14.8629 0 10.7148 0ZM7.57772 11C7.27518 11 6.98503 11.1159 6.7711 11.3221C6.55717 11.5284 6.43698 11.8082 6.43698 12.1C6.43698 12.3917 6.55717 12.6715 6.7711 12.8778C6.98503 13.0841 7.27518 13.2 7.57772 13.2C7.88026 13.2 8.17042 13.0841 8.38435 12.8778C8.59828 12.6715 8.71846 12.3917 8.71846 12.1C8.71846 11.8082 8.59828 11.5284 8.38435 11.3221C8.17042 11.1159 7.88026 11 7.57772 11ZM13.2814 11C12.9789 11 12.6887 11.1159 12.4748 11.3221C12.2609 11.5284 12.1407 11.8082 12.1407 12.1C12.1407 12.3917 12.2609 12.6715 12.4748 12.8778C12.6887 13.0841 12.9789 13.2 13.2814 13.2C13.584 13.2 13.8741 13.0841 14.088 12.8778C14.302 12.6715 14.4222 12.3917 14.4222 12.1C14.4222 11.8082 14.302 11.5284 14.088 11.3221C13.8741 11.1159 13.584 11 13.2814 11Z" fill="#668393"/>
</g>
<defs>
<clipPath id="clip0_2145_18895">
<rect width="22" height="22" fill="white"/>
</clipPath>
</defs>
</svg>
